<?xml version="1.0" standalone="no"?>
<!DOCTYPE svg PUBLIC "-//W3C//DTD SVG 20010904//EN"
 "http://www.w3.org/TR/2001/REC-SVG-20010904/DTD/svg10.dtd">
<svg version="1.0" xmlns="http://www.w3.org/2000/svg"
 width="736.000000pt" height="589.000000pt" viewBox="0 0 736.000000 589.000000"
 preserveAspectRatio="xMidYMid meet">

<g transform="translate(0.000000,589.000000) scale(0.100000,-0.100000)"
fill="#000000" stroke="none">
<path d="M2820 5693 c0 -10 -15 -16 -77 -28 -13 -2 -62 -20 -109 -39 -48 -20
-92 -33 -98 -29 -6 3 -8 3 -4 -1 3 -4 -33 -34 -81 -67 -48 -32 -94 -65 -101
-74 -7 -8 -19 -15 -28 -15 -8 0 -12 -3 -9 -7 10 -10 -14 -34 -27 -26 -6 3 -8
3 -4 -2 11 -11 -12 -36 -25 -28 -5 3 -7 2 -4 -3 5 -8 -55 -107 -91 -149 -4 -5
-9 -14 -10 -20 -7 -34 -48 -123 -54 -119 -4 3 -5 -1 -3 -9 3 -7 -2 -42 -11
-78 -13 -48 -18 -114 -19 -261 -2 -109 0 -198 4 -198 10 0 33 -138 25 -151 -4
-7 -3 -9 3 -6 11 7 36 -71 27 -85 -3 -4 0 -8 5 -8 6 0 11 -4 11 -10 0 -12 81
-202 92 -215 32 -39 87 -138 82 -147 -4 -6 -3 -8 3 -5 14 9 37 -19 28 -33 -4
-6 -2 -9 2 -8 5 2 34 -26 63 -61 30 -36 46 -62 38 -58 -9 3 -55 9 -102 13 -47
4 -86 10 -86 13 0 3 -45 6 -100 6 -55 0 -100 -3 -100 -6 0 -3 -36 -9 -80 -13
-44 -3 -92 -11 -107 -17 -19 -7 -28 -7 -33 1 -5 8 -9 7 -13 -3 -3 -8 -24 -18
-47 -22 -22 -4 -54 -13 -70 -22 -16 -8 -39 -15 -50 -16 -11 -1 -20 -4 -20 -7
0 -11 -68 -30 -86 -24 -14 4 -16 3 -5 -4 11 -8 9 -11 -9 -17 -13 -4 -47 -23
-76 -41 -29 -19 -56 -34 -59 -34 -11 0 -109 -76 -168 -130 -32 -29 -79 -81
-105 -114 -25 -34 -49 -63 -52 -66 -3 -3 -18 -33 -34 -67 -16 -35 -34 -63 -38
-63 -5 0 -7 -4 -4 -8 7 -12 -15 -82 -26 -82 -5 0 -7 -4 -4 -8 8 -13 -16 -146
-28 -154 -8 -5 -7 -8 2 -8 15 0 16 -47 1 -52 -7 -2 -7 -12 2 -31 11 -24 10
-30 -2 -38 -8 -5 -9 -9 -3 -9 7 0 14 -31 18 -75 7 -81 60 -252 96 -309 12 -20
19 -40 15 -46 -4 -6 -1 -9 6 -8 7 2 15 -6 17 -17 4 -19 232 -256 232 -241 0 4
15 -1 33 -12 17 -11 51 -30 75 -42 23 -12 42 -25 42 -29 0 -4 8 -7 18 -8 31
-2 172 -55 172 -65 0 -5 5 -6 10 -3 12 8 150 -15 150 -24 0 -11 382 -12 418
-2 23 7 32 6 32 -2 0 -8 3 -8 8 1 5 7 26 15 48 19 43 6 210 59 292 92 l52 21
-15 -37 c-9 -20 -19 -41 -24 -47 -4 -6 -18 -39 -31 -73 -12 -35 -26 -63 -30
-63 -4 0 -7 -6 -7 -12 3 -35 -16 -88 -32 -88 -11 0 -12 -3 -4 -8 8 -5 8 -21
-3 -62 -8 -30 -14 -62 -14 -72 0 -10 -4 -18 -9 -18 -17 0 -6 -426 12 -510 25
-113 46 -178 78 -248 16 -35 29 -65 29 -68 0 -3 16 -30 35 -60 20 -30 32 -60
29 -66 -4 -6 -3 -8 3 -5 6 4 23 -10 39 -30 35 -47 103 -113 116 -113 5 0 6 -4
3 -10 -3 -5 -1 -10 5 -10 16 0 150 -82 150 -92 0 -5 4 -7 10 -3 5 3 28 -3 52
-13 74 -32 141 -50 208 -58 36 -3 69 -9 74 -12 32 -18 250 6 348 39 55 18 167
68 178 79 3 3 32 25 64 49 76 56 162 144 222 226 26 36 51 65 56 65 4 0 8 6 8
14 0 8 17 46 38 84 25 46 42 67 52 65 12 -4 12 -2 2 5 -11 7 -10 17 4 50 9 23
20 42 26 42 5 0 7 4 4 8 -7 12 15 82 26 82 5 0 7 4 4 8 -6 10 14 92 23 92 3 0
7 17 8 38 1 20 7 69 12 107 13 84 19 345 9 345 -5 0 -8 9 -8 20 0 11 3 20 7
20 3 0 31 -24 62 -53 69 -63 132 -118 157 -134 11 -7 54 -35 96 -61 43 -27 75
-52 72 -55 -4 -3 2 -6 12 -5 25 1 125 -47 117 -56 -4 -4 -1 -4 8 -1 8 3 33 -2
55 -11 21 -10 46 -18 54 -19 8 -1 51 -12 95 -23 44 -11 106 -24 138 -27 31 -4
57 -12 57 -17 0 -7 5 -6 13 1 8 6 16 8 19 6 8 -8 179 -12 184 -4 2 3 33 9 68
13 36 3 99 18 141 31 42 14 81 22 87 19 6 -4 8 -2 4 4 -3 6 4 14 16 18 25 7
125 72 171 111 16 13 33 21 38 17 5 -3 9 1 9 8 0 8 13 25 28 38 15 14 31 33
35 42 3 10 12 16 19 14 7 -1 10 -1 6 1 -7 4 81 145 95 151 4 2 7 9 7 15 0 27
46 117 60 117 11 0 12 2 3 8 -9 6 -6 27 12 86 22 72 24 93 21 230 -3 139 -6
158 -34 236 -17 47 -31 93 -32 102 0 9 -4 18 -8 20 -15 6 -62 100 -55 111 3 6
1 7 -6 3 -6 -4 -14 0 -18 11 -20 55 -216 265 -320 343 -32 24 -62 49 -68 54
-5 6 -44 29 -85 50 -41 22 -77 42 -80 45 -12 14 -276 107 -327 116 -24 4 -45
10 -48 15 -8 12 103 73 116 64 8 -4 9 -3 5 5 -4 6 0 14 10 18 10 4 25 12 34
19 66 54 157 117 167 117 7 0 10 4 8 8 -3 3 2 12 10 19 8 7 15 9 16 4 0 -5 4
1 10 14 5 13 13 20 19 17 5 -3 10 0 10 7 0 16 43 58 59 58 7 0 10 4 7 9 -8 12
19 33 29 23 5 -4 5 -2 1 5 -6 11 89 154 120 179 8 6 11 13 9 16 -3 3 10 33 30
68 19 34 35 65 35 68 0 3 8 24 18 46 24 54 50 132 58 179 3 20 9 37 13 37 3 0
7 71 9 158 3 145 1 164 -22 245 -15 49 -37 110 -51 137 -14 27 -25 56 -25 64
0 8 -3 16 -7 18 -17 7 -102 128 -99 140 1 7 1 10 -2 5 -2 -4 -36 22 -74 58
-39 36 -93 80 -119 97 -27 17 -49 36 -49 41 0 6 -3 8 -6 4 -4 -3 -34 8 -68 25
-33 18 -63 33 -66 33 -3 1 -22 5 -42 9 -21 5 -38 11 -38 15 0 10 -94 16 -235
15 -102 0 -148 -5 -213 -23 -45 -12 -87 -19 -94 -15 -6 4 -8 3 -5 -2 3 -6 -18
-18 -46 -28 -63 -22 -193 -87 -264 -132 -32 -20 -60 -31 -70 -28 -14 5 -15 4
-4 -4 11 -8 10 -12 -6 -21 -11 -5 -24 -7 -28 -3 -5 4 -5 1 -1 -6 4 -7 0 -15
-11 -19 -32 -12 -262 -251 -276 -287 -4 -10 -13 -13 -24 -10 -14 4 -15 3 -5
-4 11 -7 4 -25 -35 -82 -41 -63 -48 -70 -51 -49 -2 13 -10 53 -18 88 -9 35
-17 73 -18 85 -2 12 -9 35 -16 51 -6 17 -13 40 -13 52 -1 13 -5 23 -8 23 -3 0
-12 19 -20 43 -7 23 -26 66 -41 96 -16 30 -28 60 -28 67 0 7 -3 14 -7 16 -5 2
-35 44 -68 93 -32 50 -65 94 -72 98 -7 4 -13 12 -13 17 0 5 -45 54 -100 109
-55 55 -100 97 -100 94 0 -3 -7 0 -15 7 -8 7 -12 17 -8 23 3 5 1 7 -4 4 -6 -4
-44 15 -84 42 -76 50 -231 114 -306 126 -24 4 -43 10 -43 13 0 9 -225 6 -240
-3 -7 -4 -16 -1 -21 6 -5 9 -9 10 -9 2z m288 -264 c178 -44 382 -203 523 -410
150 -221 229 -542 229 -936 0 -105 1 -113 26 -142 33 -40 92 -58 132 -42 47
20 67 49 107 151 70 183 195 409 295 536 130 162 312 293 519 371 233 88 483
65 644 -59 189 -144 287 -327 287 -531 -1 -222 -144 -515 -346 -709 -147 -140
-392 -273 -679 -368 -125 -41 -140 -51 -161 -105 -16 -42 -16 -45 5 -89 30
-60 60 -72 204 -80 195 -10 422 -54 570 -110 278 -105 513 -310 628 -549 92
-193 90 -369 -5 -562 -94 -188 -224 -297 -414 -346 -85 -21 -255 -26 -359 -9
-180 29 -375 113 -523 224 -115 86 -288 266 -394 409 -48 65 -99 125 -112 134
-29 19 -91 21 -123 4 -29 -16 -61 -69 -61 -103 0 -14 11 -68 25 -120 63 -236
89 -516 66 -704 -23 -185 -114 -408 -230 -562 -191 -253 -459 -336 -759 -236
-235 78 -387 276 -439 574 -18 105 -20 313 -4 399 45 235 158 471 354 745 48
67 57 86 57 122 0 82 -89 146 -158 114 -15 -6 -62 -34 -105 -62 -195 -124
-406 -218 -595 -265 -91 -23 -129 -27 -252 -27 -471 0 -777 204 -846 562 -66
346 116 635 498 791 179 73 248 86 463 85 167 0 206 -3 316 -27 70 -15 180
-43 245 -64 159 -49 201 -53 242 -19 17 15 36 42 42 61 21 63 1 94 -120 195
-194 162 -364 358 -458 528 -48 88 -104 251 -123 362 -20 114 -15 309 9 402
38 143 111 255 216 334 175 132 374 179 564 133z"/>
<path d="M3617 3649 c-271 -77 -459 -310 -474 -590 -11 -192 52 -356 191 -495
89 -88 143 -122 256 -162 66 -23 91 -26 200 -26 111 0 134 3 205 28 266 92
428 309 442 591 10 188 -53 350 -187 486 -83 83 -191 145 -305 174 -84 21
-243 19 -328 -6z m268 -234 c238 -62 365 -302 284 -535 -18 -53 -76 -136 -117
-169 -21 -15 -62 -41 -92 -57 -51 -27 -63 -29 -170 -29 -108 0 -119 2 -174 30
-200 101 -284 339 -191 543 31 68 120 156 189 188 97 44 178 53 271 29z"/>
</g>
</svg>
